<?xml version="1.0" encoding="UTF-8" standalone="no"?>
<!DOCTYPE svg PUBLIC "-//W3C//DTD SVG 1.1//EN" "http://www.w3.org/Graphics/SVG/1.1/DTD/svg11.dtd">
<svg width="100%" height="100%" viewBox="0 0 1536 1536" version="1.1" xmlns="http://www.w3.org/2000/svg" xmlns:xlink="http://www.w3.org/1999/xlink" xml:space="preserve" xmlns:serif="http://www.serif.com/" style="fill-rule:evenodd;clip-rule:evenodd;stroke-linejoin:round;stroke-miterlimit:2;">
    <rect id="Artboard1" x="0" y="0" width="1536" height="1536" style="fill:none;"/>
    <g id="Artboard11" serif:id="Artboard1">
        <g transform="matrix(13.970297,0,0,13.970297,-11267.410891,-2326.950495)">
            <path d="M857.924,173.62C857.924,173.606 857.924,173.591 857.924,173.576C857.924,171.603 859.526,170 861.5,170C863.474,170 865.076,171.603 865.076,173.576C865.076,173.591 865.076,173.606 865.076,173.62L864.621,210.894L886.162,180.471C886.171,180.459 886.179,180.448 886.188,180.436C887.348,178.839 889.586,178.484 891.183,179.645C892.78,180.805 893.135,183.043 891.974,184.64C891.966,184.652 891.957,184.664 891.948,184.675L869.671,214.563L904.98,202.612C904.994,202.608 905.008,202.603 905.022,202.598C906.899,201.988 908.918,203.017 909.528,204.895C910.138,206.772 909.109,208.791 907.232,209.401C907.218,209.406 907.204,209.41 907.191,209.414L871.6,220.5L907.191,231.586C907.204,231.59 907.218,231.594 907.232,231.599C909.109,232.209 910.138,234.228 909.528,236.105C908.918,237.983 906.899,239.012 905.022,238.402C905.008,238.397 904.994,238.392 904.98,238.388L869.671,226.437L891.948,256.325C891.957,256.336 891.966,256.348 891.974,256.36C893.135,257.957 892.78,260.195 891.183,261.355C889.586,262.516 887.348,262.161 886.188,260.564C886.179,260.552 886.171,260.541 886.162,260.529L864.621,230.106L865.076,267.38C865.076,267.394 865.076,267.409 865.076,267.424C865.076,269.397 863.474,271 861.5,271C859.526,271 857.924,269.397 857.924,267.424C857.924,267.409 857.924,267.394 857.924,267.38L858.379,230.106L836.838,260.529C836.829,260.541 836.821,260.552 836.812,260.564C835.652,262.161 833.414,262.516 831.817,261.355C830.22,260.195 829.865,257.957 831.026,256.36C831.034,256.348 831.043,256.336 831.052,256.325L853.329,226.437L818.02,238.388C818.006,238.392 817.992,238.397 817.978,238.402C816.101,239.012 814.082,237.983 813.472,236.105C812.862,234.228 813.891,232.209 815.768,231.599C815.782,231.594 815.796,231.59 815.809,231.586L851.4,220.5L815.809,209.414C815.796,209.41 815.782,209.406 815.768,209.401C813.891,208.791 812.862,206.772 813.472,204.895C814.082,203.017 816.101,201.988 817.978,202.598C817.992,202.603 818.006,202.608 818.02,202.612L853.329,214.563L831.052,184.675C831.043,184.664 831.034,184.652 831.026,184.64C829.865,183.043 830.22,180.805 831.817,179.645C833.414,178.484 835.652,178.839 836.812,180.436C836.821,180.448 836.829,180.459 836.838,180.471L858.379,210.894L857.924,173.62Z"/>
        </g>
    </g>
</svg>
