<svg width="64" height="64" viewBox="0 0 1536 1536" fill="none" xmlns="http://www.w3.org/2000/svg" role="img" aria-label="Sprout mark">
  <path fill="#8A5CF5" d="M683.172 98.866C683.169 98.668 683.168 98.469 683.168 98.271C683.168 70.518 705.687 48 733.44 48C761.193 48 783.711 70.518 783.711 98.271C783.711 98.469 783.71 98.668 783.708 98.866L777.313 623.21L1080.09 195.727C1080.21 195.567 1080.32 195.406 1080.44 195.247C1096.74 172.812 1128.17 167.82 1150.61 184.118C1173.04 200.416 1178.03 231.834 1161.73 254.269C1161.61 254.436 1161.49 254.603 1161.38 254.77L848.086 675.34L1344.56 507.342C1344.76 507.274 1344.95 507.207 1345.15 507.142C1371.55 498.562 1399.94 513.03 1408.52 539.434C1417.1 565.839 1402.63 594.22 1376.23 602.8C1376.03 602.865 1375.84 602.928 1375.65 602.99L875.231 758.84L1375.65 914.69C1375.84 914.752 1376.03 914.815 1376.23 914.88C1402.63 923.46 1417.1 951.841 1408.52 978.246C1399.94 1004.65 1371.55 1019.12 1345.15 1010.54C1344.95 1010.47 1344.76 1010.41 1344.56 1010.34L848.086 842.34L1161.38 1262.91C1161.49 1263.08 1161.61 1263.24 1161.73 1263.41C1178.03 1285.85 1173.04 1317.26 1150.61 1333.56C1128.17 1349.86 1096.74 1344.87 1080.44 1322.43C1080.32 1322.27 1080.21 1322.11 1080.09 1321.95L777.313 894.47L783.708 1418.81C783.71 1419.01 783.711 1419.21 783.711 1419.41C783.711 1447.16 761.193 1469.68 733.44 1469.68C705.687 1469.68 683.168 1447.16 683.168 1419.41C683.168 1419.21 683.169 1419.01 683.172 1418.81L689.567 894.47L386.789 1321.95C386.676 1322.11 386.56 1322.27 386.442 1322.43C370.144 1344.87 338.726 1349.86 316.291 1333.56C293.856 1317.26 288.864 1285.85 305.162 1263.41C305.283 1263.24 305.4 1263.08 305.518 1262.91L618.81 842.34L122.335 1010.34C122.14 1010.41 121.944 1010.47 121.748 1010.54C95.3439 1019.12 66.9623 1004.65 58.3823 978.246C49.8022 951.841 64.2708 923.46 90.675 914.88C90.8709 914.815 91.0669 914.752 91.2618 914.69L591.649 758.84L91.2618 602.99C91.0669 602.928 90.8709 602.865 90.675 602.8C64.2708 594.22 49.8022 565.839 58.3823 539.434C66.9623 513.03 95.3439 498.562 121.748 507.142C121.944 507.207 122.14 507.274 122.335 507.342L618.81 675.34L305.518 254.77C305.4 254.603 305.283 254.436 305.162 254.269C288.864 231.834 293.856 200.416 316.291 184.118C338.726 167.82 370.144 172.812 386.442 195.247C386.56 195.406 386.676 195.567 386.789 195.727L689.567 623.21L683.172 98.866Z"/>
</svg>
